# xmcd CD database file
#
# Track frame offsets:
#	150
#	15594
#	33471
#	50474
#	66909
#	76238
#	92268
#	115143
#	129625
#	147161
#	160930
#	177124
#	192828
#	207161
#	224883
#	237792
#	254819
#	280249
#	300313
#
# Disc length: 4150 seconds
#
# Revision: 0
# Processed by: cddbd v1.5.2PL0 Copyright (c) Steve Scherf et al.
# Submitted via: CDex 1.70beta2
#
DISCID=0c103413
DTITLE=JIMMY ROGERS - That's All Gight, Blues Reference
DYEAR=2002
DGENRE=Blues
TTITLE0=Sloppy Drunk(Take 1.)
TTITLE1=I Can't Sleep For Worrying(Take 2.)
TTITLE2=Mistreated Baby
TTITLE3=Pretty Baby
TTITLE4=Slick Chick
TTITLE5=Left Me With A Broken Heart
TTITLE6=I Lost The Good Woman
TTITLE7=You're So Sweet
TTITLE8=The Last Time
TTITLE9=Shelby County
TTITLE10=Tricky Woman
TTITLE11=Sloppy Drunk(Take 2.)
TTITLE12=Pretty Baby(Take 1.)
TTITLE13=I Can't Sleep For Worrying(Take 1.)
TTITLE14=Walkin' By Myself
TTITLE15=Gold Tailed Bird
TTITLE16=Sloppy Drunk
TTITLE17=Ludella
TTITLE18=That's All Right
EXTD=YEAR: 2002
EXTT0=
EXTT1=
EXTT2=
EXTT3=
EXTT4=
EXTT5=
EXTT6=
EXTT7=
EXTT8=
EXTT9=
EXTT10=
EXTT11=
EXTT12=
EXTT13=
EXTT14=
EXTT15=
EXTT16=
EXTT17=
EXTT18=
PLAYORDER=
